<?xml version="1.0" encoding="utf-8"?>
<!-- Generator: Adobe Illustrator 24.3.0, SVG Export Plug-In . SVG Version: 6.00 Build 0)  -->
<svg version="1.1" id="Layer_1" xmlns="http://www.w3.org/2000/svg" xmlns:xlink="http://www.w3.org/1999/xlink" x="0px" y="0px"
	 viewBox="0 0 1009.1 90.1" style="enable-background:new 0 0 1009.1 90.1;" xml:space="preserve">
<style type="text/css">
	.st0{fill:#FFFFFF;}
	.st1{fill:#231F20;}
	.st2{fill:#F99F1D;}
</style>
<g id="Layer_2_1_">
	<g id="Layer_1-2">
		<polygon class="st0" points="859.3,20.5 859.4,73.5 871.7,75.6 870.2,20.2 		"/>
		<polygon class="st0" points="805.3,21 817.3,51.2 817.4,73.7 831.2,75.1 830.8,49.8 842.8,20.1 831.9,20.7 827.5,30.6 816.8,20.4 
					"/>
		<polygon class="st0" points="757.9,20.8 758.1,74.6 771.7,74.9 770.7,52.5 781.8,52.5 780.1,38.5 771.7,39.5 771.4,33.1 
			790.6,32.7 790.5,20.2 		"/>
		<polygon class="st0" points="732.5,62.6 732.8,74.2 742.9,75.3 743.1,61.6 		"/>
		<polygon class="st0" points="667.3,2.8 667.3,17.3 681.4,19.7 683,74.7 699.5,75.3 697.9,17.8 715.9,17.2 713.6,2.9 		"/>
		<polygon class="st0" points="600.9,3.3 600.9,75.1 650.5,75.7 648.5,3.8 646.5,3 633.1,2.6 630.2,24.6 616.1,2.5 		"/>
		<polygon class="st0" points="536.8,2.8 536.1,73.8 540.3,75.1 580.2,74.2 578.3,57 568.1,26.2 580.5,17.3 580,2.3 		"/>
		<polygon class="st0" points="452.2,2.9 451.4,73.9 454.2,75.9 515.8,75.1 514.2,2.6 492.5,2.7 488.6,17.3 473.3,3.4 		"/>
		<rect x="385.5" y="3" class="st0" width="16.1" height="71.3"/>
		<rect x="395.7" y="29.4" class="st0" width="36.4" height="18.4"/>
		<rect x="413.3" y="3" class="st0" width="14.7" height="73.4"/>
		<polygon class="st0" points="337.9,0.5 345.5,1.4 351.3,3.1 361,10.3 364.1,31.6 364.2,56.2 354.1,73.3 340.8,75.7 326,69.9 
			320.5,62.2 318.7,56.5 318.6,20 320.5,12.7 324.2,7 329.7,2.5 		"/>
		<polygon class="st0" points="251.9,74.6 268.8,74.9 272.4,60.8 286.3,60.5 288.4,74.5 307.5,76.2 288.1,2.3 269.3,2.7 267.8,3.3 
					"/>
		<rect x="188.2" y="3.4" class="st0" width="42.8" height="20.5"/>
		<rect x="187.1" y="57.3" class="st0" width="43.8" height="16.9"/>
		<rect x="187.4" y="22.4" class="st0" width="27.1" height="43.6"/>
		<rect x="210.8" y="30.5" class="st0" width="8.3" height="17.1"/>
		<rect x="122.6" y="2.9" class="st0" width="26.1" height="71.3"/>
		<polygon class="st0" points="146.2,3.4 151.5,3.8 159.3,9.1 165.9,20.6 165.7,36.1 159,47.7 139.6,52.2 134.4,28.5 		"/>
		<rect x="38.2" y="3" class="st0" width="23.2" height="71.1"/>
		<rect x="78.4" y="2.9" class="st0" width="22.4" height="71.6"/>
		<polygon class="st0" points="59.7,9.1 68.8,32.3 78.9,4.3 85.5,9.8 86,61.8 80.6,77.5 59.8,78.4 51.5,53.1 		"/>
		<rect x="1.4" y="2.3" class="st0" width="15.8" height="73.4"/>
		<path class="st1" d="M31.6,86.3c0,1.9-0.5,1.7-1.3,1.7H15.6c-0.7,0.1-1.5-0.2-2-0.7C12.9,86.6,1.7,76.9,1.1,76.6
			c-0.5-0.4-0.7-0.9-0.8-1.5C0.3,74.3,0,54.3,0,39.7S0.1,3.1,0.1,2.1c0-0.5-0.1-0.8,0.6-0.9s15.2,0.1,16.1,0.1s1.1,0.2,1.7,0.9
			c0.5,0.5,12,10.6,12.7,11.2c0.4,0.3,0.7,0.8,0.7,1.3v34.1C31.9,59,31.6,84.6,31.6,86.3z M15,72.2c0-0.7-0.1-24.1-0.2-34.2
			S14.2,5.5,14.2,4.7s-0.1-1.3-0.5-1.3L3,3.3c-0.6,0-0.7,0-0.7,0.7c0,0.9-0.1,21.1-0.1,32.6s0.1,34,0.1,34.9s0.1,1,0.6,1.1
			c2,0.5,4,0.7,6.1,0.7c3.1,0,5.1,0.1,5.4,0S15.1,73,15,72.2z"/>
		<path class="st1" d="M116.2,85.6c-0.1,1.6-0.7,2-1.5,2s-11.5,0.2-12.4,0.1s-0.9-0.2-1.6-0.6c-0.5-0.3-8.1-6.1-8.8-6.6s-1-0.7-1,0
			c-0.2,0.7-0.8,5.2-1.1,6.2c-0.1,0.9-0.4,1-1.1,1s-6.9,0.1-7.5,0.1c-0.6,0-1.2-0.2-1.7-0.5c-0.5-0.4-9.1-6.8-9.6-7.2
			s-0.7-0.5-0.7,0.1s-0.4,5.7-0.5,6.6s-0.7,1-1.5,1S53.1,87.9,52,87.9c-0.8,0-1.6-0.3-2.2-0.8c-0.7-0.5-11.6-11.5-12-12
			c-0.5-0.5-0.8-1.2-0.8-2c-0.1-0.8,0.3-31.5,0.3-36.9s0.5-33.5,0.6-34.3c0-0.6-0.1-0.6,1.2-0.7s19.1,0,20.2,0
			c0.9-0.1,1.8,0.2,2.4,0.8c0.8,0.7,10.6,9.8,11.8,10.9s0.9,0.7,1.1,0s2.7-9.6,3-10.7s0.3-0.8,1.3-0.9l21.9-0.1
			c0.9-0.2,1.9,0.2,2.4,1l12.7,12.7c0.4,0.5,0.5,0.5,0.6,1.6S116.2,84.2,116.2,85.6z M99,37c0-7.5-0.1-32.1-0.1-33S99,3.3,98,3.3
			S81.3,3.4,80.7,3.4c-0.8,0-0.9,0.2-1,0.6S69.6,38,69.4,38.9s-0.4,1.4-1-0.6S58.1,4.8,57.9,4.3S57.6,3.9,57,3.9S41.4,3.6,40.8,3.7
			s-0.9,0-0.9,0.5c0,0.7-0.7,32.4-0.9,38.7S38.8,53.7,38.8,57s0.1,14.8,0.1,15.4s-0.1,1.4,0.6,1.4s10.7-0.6,11.2-0.6
			s0.8,0.1,0.8-0.7s0.1-20,0.1-24.9s0.2-17.9,0.1-19.2s0.4-1,0.8,0.8s10.2,36.7,11,38.7c0.6,2,1,4.2,1.1,4.7s-0.2,0.6,0.5,0.6
			s6.4-0.2,6.8-0.1s0.5,0.2,0.7-0.7s3.9-13.8,6.5-22.2s5.8-19,6.1-20.5s0.6-1.9,0.6,0.1s-0.1,41.9,0,42.8s0.1,0.8,0.6,0.8H87
			c0,0,10.8-0.1,11.3-0.2s0.6,0.1,0.6-0.5S99,44.7,99,37z"/>
		<path class="st1" d="M170,58.7c-5.2,3.2-13,3.9-13.8,3.9s-0.7,0.3-0.8,1.2c0,0.7-0.2,21.5-0.2,22.9c-0.2,1.5-0.5,1.4-1.3,1.4
			s-16.4-0.2-17.4-0.3c-0.9,0.1-1.7-0.3-2.3-1c-0.6-0.6-3.1-2.7-5.6-5.2s-6.1-6.5-6.5-7c-0.4-0.5-0.6-1.2-0.5-1.8
			c0-1.1,0.1-16.9,0-28.6s-0.1-40.3,0-41.2c0-1.1,0.7-1,1.7-1.3c0.8-0.2,15.9-0.2,21.4,0c5.3,0.2,7.5,1.4,11.8,4s16.2,14,18.1,16.6
			c1.9,2.4,7,6.1,7.2,18.1S175.4,55.7,170,58.7z M164.4,24.2c0-6.2-3-10.5-5.7-13.6s-6.8-6.5-12.8-6.8s-20.7-0.3-21.6-0.2
			s-0.8-0.1-0.9,0.4s-0.3,23.6-0.2,34s0.2,33.3,0.2,34.1s-0.3,1.1,0.7,1.1s10.1,0.3,10.9,0.2c1,0,1.1-0.1,1.1-1v-13
			c0-5.9,0.4-13.7,0.3-14.3s0.4-0.6,0.9-0.6c0.7,0,7.5,0,11.6-0.5c3.8-0.4,7.2-2.3,9.6-5.2C162.3,34.9,164.4,29.7,164.4,24.2z
			 M137.5,16.6c2.5-0.2,5.1,0,7.6,0.4c1.8,0.4,6.1,2.1,6,7.1s-2.9,6-5.5,7c-2.6,0.8-7.1,0.5-8.2,0.5s-1.3-0.4-1.3-1.3s0-11.8,0-12.9
			C136.1,16.7,136.4,16.8,137.5,16.6z"/>
		<path class="st1" d="M246.2,30.7c-0.1,0.7-0.1,0.8-0.7,0.9c-0.8,0-21.7-0.2-22.2-0.3c-0.7,0-0.7,0-0.4,0.4s8.5,11.6,8.7,11.9
			c0.2,0.2,0.3,0.6,0.3,0.9c0,0.5,0.3,11.3,0.3,11.8s0,0.6-0.2,0.8s-0.4,0.2-0.1,0.6s13.2,13,13.6,13.5c0.3,0.3,0.4,0.7,0.4,1.1
			c0.1,0.4,0.1,13.9,0.1,14.8s-0.2,1-0.9,1l-43,0.4c-0.4,0-0.7-0.1-1-0.4c-0.4-0.3-13.6-12.6-13.9-12.9s-0.8-0.5-0.8-1.4
			s0.8-69.8,0.7-70.9c-0.1-0.7,0.2-0.9,1.1-1s42.6,0,43.3,0c0.5,0,0.9,0.1,1.3,0.4c0.5,0.3,12.3,10.7,12.9,11.3s0.4,0.7,0.4,1.4
			S246.2,29.9,246.2,30.7z M228.9,4.4c0-0.3,0.1-0.6-0.5-0.6s-38.3-0.3-38.8-0.3s-0.8,0.1-0.8,0.8s-1.1,68.2-0.9,68.7
			c0,0.5,0,0.5,0.5,0.5s39.6-0.4,40.4-0.4c0.6,0,0.5-0.3,0.4-0.7s0-11.6,0-12.1s-0.1-0.6-0.6-0.6s-25.7,0.1-26.3,0.1
			s-0.6-0.3-0.6-0.8s0-13.1,0-13.6s0.2-0.7,0.7-0.8c0.7-0.1,13.2-0.1,13.8-0.1s0.5-0.1,0.5-0.5s0.2-11.7,0.2-12.1s0.1-0.4-0.2-0.4
			l-14.5-0.2c-0.4,0-0.5-0.2-0.5-0.6s-0.1-12.6-0.1-13.3c0-0.2,0.1-0.3,0.6-0.4s25-0.2,25.8-0.3s0.9-0.4,0.9-0.9S229,4.7,228.9,4.4z
			"/>
		<path class="st1" d="M317,88.3l-13.7,0.2c-0.4-0.1-0.9-0.3-1.2-0.6c-0.3-0.3-5.5-4.5-7.3-6.3c-1.9-1.6-6.8-5.9-7-6.1
			s-0.3-0.5-0.4-0.2c-0.1,0.5-0.6,3.5-1.1,6s-1.3,5.6-1.4,6.3s-0.2,0.8-1,0.9s-17.2,0-18.3-0.1c-0.7,0-1.4-0.3-1.8-0.8
			c-0.7-0.5-12.8-12.4-13.2-12.8c-0.4-0.5-0.4-1.1-0.2-1.6c0.2-0.8,16.7-70.4,16.8-70.9s0.4-0.6,1.2-0.7s17.7-0.1,19,0
			s1.6,0.5,2.8,1.4s13.2,12.4,13.9,13.1c0.6,0.5,1,1.2,1.1,1.9c0.3,1,2.9,11.9,5,21.8c2.3,9.8,7.1,31,7.2,31.8
			c0.2,0.7,0.3,1.3,0.3,2c0,1,0.1,13.2,0.2,13.9S317.5,88.3,317,88.3z M302.6,72.9c0-0.2-3-15.1-6.6-30.6
			c-4.2-18.1-8.9-37.7-8.9-37.9c-0.1-0.4-0.1-1-0.5-1l-17,0.1c-0.2,0-0.3,0-0.4,0.6s-16.4,68.3-16.6,69c-0.1,0.3,0,0.4,0.2,0.4
			s3.9,0,6.1-0.1s6.2,0.1,6.5,0s0.3-0.1,0.3-0.3s1.5-5.9,2-7.9c0.6-2.2,1.5-6,1.7-6.3s0.3-0.5,0.7-0.6s3.6,0,7.3-0.1
			s8.1,0.1,8.7,0.1s0.8,0.3,0.9,0.8s2.8,13.4,2.9,13.8s0,0.5,0.4,0.5l11.9,0.1C302.8,73.5,302.7,73.3,302.6,72.9z M284.6,46.9
			c0.2,0.7-0.6,0.8-1.2,0.9s-9.7,0-10.3-0.1c-0.2,0-0.9,0-0.8-0.8s1.8-8.2,2.8-12.3s2.5-11.4,2.8-12.7s0.9-1,1-0.3s1.9,7.8,3.3,14.2
			C283.5,41.9,284.5,46.3,284.6,46.9z"/>
		<path class="st1" d="M379.2,36.7c0,2.5-0.2,9.7-0.2,10.3c0,0.8-0.3,0.4-1,0.4s-6.9,0-7.7,0.1c-0.3,0-0.3,0,0,0.6
			c0.5,0.7,2.1,2.5,3.5,4.6c1.3,1.4,2.5,2.8,3.6,4.4c0.5,0.6,0.9,1.3,1,2.1c0.3,2.3,0.5,4.7,0.4,7c0,3.3-0.2,10-1.7,14.9
			c-1.2,4.6-4.5,6.9-8.3,8.1s-10.9,0.8-13.9,0.6s-5.8-0.6-11.6-3.3s-13-9.3-18.5-15.7c-5-6.5-6.2-11.6-6.7-15.2s-0.4-27.5-0.1-35.2
			s3.1-11,6-14.4s8.2-5.3,9.9-5.8C336-0.2,341,0,345.7,0.4c4.5,0.6,8.7,3,14.5,7c5.9,4.2,12.4,11.8,14.1,13.8
			c1.6,2.2,2.9,4.6,3.8,7.2C378.8,31.1,379.2,33.9,379.2,36.7z M362.7,45c0-0.4,0.1-0.5-0.5-0.5l-12.9-0.1c-0.5-0.1-0.6,0-0.6,0.6
			s-0.1,4.2-0.3,7.3c-0.1,2.5-1.3,4.9-3.3,6.5c-1.9,1.5-6.1,2-8.6,0.3c-2.7-1.9-3.5-5.2-3.5-10.2c0.1-5.2,0.4-21.1,0.6-25.3
			c-0.1-3,1.4-5.8,3.8-7.5c2.4-1.1,5.1-1.1,7.5,0c1.7,0.9,2.8,2.5,3.1,4.4c0.8,2.7,0.4,8.7,0.5,9.4c0.1,0.2,0.1,0.6,0.5,0.6
			l13.2-0.2c0.4-0.1,0.3-0.1,0.3-0.7s0-5.6-0.2-8.8c-0.2-2.9-0.7-5-3.4-9.9s-8.9-7.3-12.6-8.4s-6.9-0.8-10.5-0.6s-7.2,2.2-10.1,5
			c-2.7,2.6-4.7,5.9-5.8,9.5c-0.8,3.3-0.8,5.6-0.9,13.7c0,8.3-0.1,20.1,0.5,25.3c0.3,5.4,2.5,9.1,6.6,12.7
			c4.2,3.8,10.9,5.7,18.1,5.2s11.5-4.7,15.3-10.8C363.5,56.2,362.6,45.6,362.7,45z"/>
		<path class="st1" d="M445.2,88.4c-0.1,0.5-0.2,0.8-0.7,0.9c-0.3,0.1-5.5,0.3-8.4,0.3s-8.3-0.1-8.6-0.1c-0.4,0-0.7-0.1-1-0.3
			c-0.4-0.4-8.1-7-8.5-7.3c-0.2-0.1-0.4-0.1-0.5,0.1c-0.1,0.1-0.1,0.2-0.1,0.2c-0.1,0.5-0.1,6.2-0.1,6.5s-0.1,0.8-0.5,0.9
			s-15.3,0.2-16.3,0.2s-1.4-0.6-2.4-1.4c-0.9-0.6-12.7-13-13.2-13.5s-0.4-0.5-0.4-1.7s-0.2-20.9-0.2-29.2c-0.1-8.1,0.5-40,0.5-41
			c0.1-0.7,0.1-0.9,1.2-1.1s13.7,0,14.8,0c1,0,2.1,0.3,2.9,0.9c0.9,0.6,7.5,6.6,8.4,7.3c0.7,0.6,0.5,0.4,0.5-0.4s0.1-5.7,0-6.7
			c0-1.2,0.2-1.1,1.1-1.1s14.4,0,15.5-0.1c1-0.1,2,0.3,2.7,1.1c1.2,0.9,11.6,10.7,12.4,11.6S445,16,445,17s0.3,25.6,0.3,34.2
			S445.3,87.9,445.2,88.4z M427.1,72c0.1-0.9-0.2-67-0.1-67.7s-0.3-0.7-1.1-0.7l-10.5,0.1c-0.6,0-1.1-0.1-1.1,1
			c0.1,0.9-0.1,24.8-0.1,25.8s-0.1,1.2-1.1,1.3c-0.8,0.1-12.3,0.2-13.2,0.1c-0.7-0.1-1.1-0.2-1.2-1.5S398.4,5,398.5,4.3
			s-0.1-0.8-0.8-0.8h-10.6c-0.5,0-0.8,0-0.8,0.4v33.2c-0.1,17.3-0.1,34.8-0.1,35.2c0.1,0.8-0.1,1.2,0.7,1.2h11.5
			c0.6,0,0.6-0.2,0.6-0.6c0-0.6-0.1-25.5,0-26.4s0.2-1,0.8-1c0.8-0.1,13.1-0.3,13.8-0.3s0.7,0.1,0.7,0.9c0,0.6,0.3,25,0.3,25.9
			c0.1,1.1,0.3,1.4,1,1.4l10.6-0.1C427.1,73.2,427.1,72.9,427.1,72z"/>
		<path class="st1" d="M529.6,85.6c-0.1,1.6-0.7,2-1.5,2s-11.5,0.2-12.4,0.1s-0.9-0.2-1.6-0.6c-0.5-0.3-8.1-6.1-8.8-6.6s-1-0.7-1,0
			c-0.2,0.7-0.8,5.2-1.1,6.2c-0.1,0.9-0.4,1-1.1,1s-6.9,0.1-7.5,0.1c-0.6,0-1.2-0.2-1.7-0.5c-0.5-0.4-9.1-6.8-9.6-7.2
			s-0.7-0.5-0.7,0.1s-0.4,5.7-0.5,6.6s-0.7,1-1.5,1s-14.1,0.1-15.2,0.1c-0.8,0-1.6-0.3-2.2-0.8c-0.7-0.5-11.6-11.5-12-12
			c-0.5-0.5-0.8-1.2-0.8-2c-0.1-0.8,0.3-31.5,0.3-36.9s0.5-33.5,0.6-34.3c0-0.6-0.1-0.6,1.2-0.7s19.1,0,20.2,0
			c0.9-0.1,1.8,0.2,2.4,0.8c0.8,0.7,10.6,9.8,11.8,10.9s0.9,0.7,1.1,0s2.7-9.6,3-10.7s0.3-0.8,1.3-0.9l21.9-0.1
			c0.9-0.2,1.9,0.2,2.4,1l12.7,12.7c0.4,0.5,0.5,0.5,0.6,1.6S529.6,84.2,529.6,85.6z M512.4,37c0-7.5-0.1-32.1-0.1-33
			s0.1-0.7-0.9-0.7s-16.7,0.1-17.3,0.1c-0.8,0-0.9,0.2-1,0.6S483,38,482.8,38.9s-0.4,1.4-1-0.6s-10.3-33.5-10.5-34s-0.3-0.4-0.9-0.4
			s-15.6-0.3-16.2-0.2s-0.9,0-0.9,0.5c0,0.7-0.7,32.4-0.9,38.7s-0.2,10.8-0.2,14.1s0.1,14.8,0.1,15.4s-0.1,1.4,0.6,1.4
			s10.7-0.6,11.2-0.6s0.8,0.1,0.8-0.7s0.1-20,0.1-24.9s0.2-17.9,0.1-19.2s0.4-1,0.8,0.8s10.2,36.7,11,38.7c0.6,2,1,4.2,1.1,4.7
			s-0.2,0.6,0.5,0.6s6.4-0.2,6.8-0.1s0.5,0.2,0.7-0.7s3.9-13.8,6.5-22.2s5.8-19,6.1-20.5s0.6-1.9,0.6,0.1s-0.1,41.9,0,42.8
			s0.1,0.8,0.6,0.8h0.6c0,0,10.8-0.1,11.3-0.2s0.6,0.1,0.6-0.5S512.4,44.7,512.4,37z"/>
		<path class="st1" d="M595.2,30.7c-0.1,0.7-0.1,0.8-0.7,0.9c-0.8,0-21.7-0.2-22.2-0.3c-0.7,0-0.7,0-0.4,0.4s8.5,11.6,8.7,11.9
			c0.2,0.2,0.3,0.6,0.3,0.9c0,0.5,0.3,11.3,0.3,11.8s0,0.6-0.2,0.8s-0.4,0.2-0.1,0.6s13.2,13,13.6,13.5c0.3,0.3,0.4,0.7,0.4,1.1
			c0.1,0.4,0.1,13.9,0.1,14.8s-0.2,1-0.9,1l-43,0.4c-0.4,0-0.7-0.1-1-0.4c-0.4-0.3-13.6-12.6-13.9-12.9s-0.8-0.5-0.8-1.4
			s0.8-69.8,0.7-70.9c-0.1-0.7,0.2-0.9,1.1-1s42.6,0,43.3,0c0.5,0,0.9,0.1,1.3,0.4c0.5,0.3,12.3,10.7,12.9,11.3s0.4,0.7,0.4,1.4
			S595.2,29.9,595.2,30.7z M577.9,4.4c0-0.3,0.1-0.6-0.5-0.6s-38.3-0.3-38.8-0.3s-0.8,0.1-0.8,0.8s-1.1,68.2-0.9,68.7
			c0,0.5,0,0.5,0.5,0.5s39.6-0.4,40.4-0.4c0.6,0,0.5-0.3,0.4-0.7s0-11.6,0-12.1s-0.1-0.6-0.6-0.6s-25.7,0.1-26.3,0.1
			s-0.6-0.3-0.6-0.8s0-13.1,0-13.6s0.2-0.7,0.7-0.8c0.7-0.1,13.2-0.1,13.8-0.1s0.5-0.1,0.5-0.5s0.2-11.7,0.2-12.1s0.1-0.4-0.2-0.4
			l-14.5-0.2c-0.4,0-0.5-0.2-0.5-0.6s-0.1-12.6-0.1-13.3c0-0.2,0.1-0.3,0.6-0.4s25-0.2,25.8-0.3s0.9-0.4,0.9-0.9S578,4.7,577.9,4.4z
			"/>
		<path class="st1" d="M662.8,86.3c-0.1,1.7-0.5,2.2-1,2.4s-14,0-15.2,0c-0.9,0-1.8-0.3-2.5-0.8c-0.8-0.6-9.4-6.1-10.4-6.9
			s-0.9-0.5-0.9,0.3v6.3c0,1.2-0.6,1.1-1.5,1.2s-16.2,0-16.8-0.1c-0.6,0.1-1.2-0.1-1.6-0.5c-0.6-0.6-11.4-10.5-12.2-11.2
			s-0.9-1-0.9-2.1c0-0.9-0.1-28.2-0.1-34.8S600,3.6,600,3c0.1-0.8,0.2-0.9,1.1-1s13.4-0.2,14.6-0.2c0.9-0.1,1.9,0.2,2.6,0.8
			c0.9,0.6,10.4,6,11.8,7.1c1.2,1.1,0.9,0.5,0.9-0.2s0.1-5.9,0.1-6.7c0-1,0.1-1,0.9-1l16.3,0.1c0.9,0,1.9,0.3,2.6,0.9
			c1.9,1.3,3.8,2.8,5.6,4.3c2.8,2.5,3.9,4.1,4.8,4.9s0.9,1.4,1,3.2S662.8,84.7,662.8,86.3z M646.2,72.5c0-0.7-0.3-68.1-0.3-68.6
			c-0.1-0.4-0.4-0.7-0.8-0.6c0,0,0,0,0,0c-0.6,0-11.1,0.4-11.5,0.4s-0.5,0-0.5,0.9v36.8c0,1.3,0.2,2.5-1,0.1s-6.6-16-8.8-20.9
			S616,4.3,615.8,3.9s-0.2-0.6-0.7-0.6s-12.2,0.3-12.9,0.4s-0.5,0.4-0.5,0.7c0.1,0.5,0,29.5-0.1,38.2s0.1,29.5,0.1,30
			s-0.1,0.8,0.4,0.8s11.3-0.2,11.9-0.4c0.7,0,0.9,0.2,0.8-1.1s-0.3-38.5-0.3-40s0.5-0.5,0.7,0.2c0.4,0.6,17.4,40,17.7,40.7
			s0.4,0.9,1,0.9s11.1-0.4,11.7-0.4S646.2,73.2,646.2,72.5z"/>
		<path class="st1" d="M728.1,33.8c0,0.5-0.2,0.9-0.6,0.9l-10.8,0.1c-0.6,0-0.8,0.2-0.8,0.8s-0.4,50.7-0.4,51.7
			c0.1,0.8-0.3,0.9-1.1,1s-17.9,0-18.5-0.1s-1.7-1-2.2-1.5S682.3,75.8,682,75.3c-0.3-0.4-0.5-0.9-0.4-1.4c0.1-0.6-0.1-39.2-0.1-39.7
			s-0.1-0.7-0.6-1.1c-0.3-0.3-13.9-12.9-14.3-13.4c-0.4-0.3-0.5-0.7-0.5-1.2c-0.1-0.3,0-14.6,0-15.2c0-1.5,0.5-1.7,1.3-1.8l47,0.5
			c0.6,0,1.2,0.2,1.7,0.6c0.5,0.4,11.4,10.8,11.7,11.2c0.4,0.4,0.5,0.9,0.5,1.4C728.1,15.9,728.1,33.3,728.1,33.8z M711.8,15.9
			c0-0.3-0.2-3.9-0.2-6.3c0.1-1.9,0.1-3.9-0.1-5.8c0-0.4-0.2-0.4-0.5-0.4s-15,0-22.3,0s-19.7,0.1-20.2,0s-0.6,0.2-0.7,0.5
			c-0.1,0.5,0.2,11.5,0.2,11.9s0.1,0.3,0.4,0.3s14.3,0.2,14.7,0.3c0.3,0.1,0.6,0.4,0.6,0.7c0,0.4,0.5,55.5,0.5,55.8s0.1,0.4,0.2,0.4
			s3.7,0.1,6,0.1s5.6-0.1,5.8-0.1s0.3,0,0.2-0.5c0-0.3-0.2-55-0.1-55.5s0.4-0.8,1-0.8s4.9-0.1,7.6-0.1s6.2-0.1,6.5-0.1
			S711.8,16.3,711.8,15.9z"/>
		<path class="st1" d="M754.5,72.2c0,0.6-0.2,11.6-0.2,12s-0.3,1-0.6,1s-2.1,0.2-3.6,0.2s-5.8-0.2-6.1-0.2c-0.3,0.1-0.7,0-1-0.2
			c-0.3-0.2-1.5-1.3-4.4-4c-2.9-2.9-6.4-6.1-6.7-6.6c-0.4-0.5-0.7-1.1-0.7-1.7c0-0.8,0.3-10,0.4-10.7c0-0.4-0.2-0.7,0.6-0.8
			c0.7-0.1,10.8-0.1,11.7-0.1c0.6,0,1.2,0.2,1.6,0.7c0.4,0.5,8,8.6,8.5,9.2S754.5,71.6,754.5,72.2z M741.9,63.5
			c0-0.6-0.1-0.8-0.5-0.8l-7.7,0.1c-0.5,0-0.6-0.2-0.6,0.2v9.3c0,0.4-0.1,0.8,0.5,0.8s7,0.4,7.6,0.4s0.5-0.2,0.5-0.8
			S741.9,64,741.9,63.5z"/>
		<path class="st1" d="M802.1,29.7c0,0.6-0.5,10.5-0.5,11.3s-0.8,1-1.3,1s-5.6,0.2-7.5,0.2s-8.8,0-9.2-0.1s-0.6,0.1-0.3,0.3
			s3.1,3.2,5,5s4.7,4.3,4.9,4.5c0.2,0.1,0.2,0.3,0.2,0.5c0,0.5,0.2,2.7,0.2,5.1c0.1,1.8,0,3.5-0.1,5.3c-0.1,0.8-0.3,0.8-1,0.8
			s-9.1,0.3-9.5,0.3s-0.5,0.2-0.5,0.6s0.2,6,0.3,9.4s0.2,10,0.2,10.5c0.2,0.6-0.2,0.6-0.4,0.6s-4,0.2-6.5,0.2s-5.9,0-6.5-0.1
			c-0.4,0-0.7-0.2-1-0.4c-0.2-0.2-10.3-8.8-10.8-9.2c-0.4-0.3-0.6-0.9-0.5-1.4c0-0.2-0.1-12.8-0.2-25.7c-0.2-13.9,0-28.1,0-28.4
			s0.1-0.5,0.8-0.5s31.8,0.2,32.8,0.3c0.8-0.1,1.6,0.2,2.2,0.7c0.4,0.4,3.2,2.9,4.8,4.4s3.5,3.5,3.8,3.9
			C801.9,29,802.1,29.4,802.1,29.7z M788.9,30.2c0-0.5,0.2-8.5,0.1-8.9s0-0.3-0.5-0.2s-10.5-0.1-16-0.1s-12.5,0.1-12.9,0.1
			s-0.8-0.1-0.8,0.6c0,0.4-0.2,13,0,25.6s0.1,25,0.1,25.2c0,0.5,0,0.8,0.5,0.8s8.3,0.1,9,0.1s0.7-0.3,0.6-1s-0.5-19.5-0.5-20.2
			s0.3-0.5,0.7-0.5s9.5,0,10-0.1c0.3,0,0.5,0.1,0.5-0.3s-0.2-8.3-0.2-8.7s-0.1-0.6-0.6-0.6l-10.1-0.2c-0.5,0-0.6,0.1-0.6-0.6
			s0.1-9.8,0-10.4c-0.1-0.5,0.2-0.5,0.5-0.5s6.8,0.1,10.7,0.1h9.3C789,30.5,788.9,30.5,788.9,30.2z"/>
		<path class="st1" d="M855.4,37.1c0,0.6-0.2,1.1-0.5,1.7c-0.3,0.6-9.3,21.7-9.8,23c-0.5,1.1-0.9,2.3-1.1,3.5
			c-0.2,1.4-0.3,2.9-0.4,4.3c0,0.8-0.2,14.5-0.2,14.8s-0.1,0.5-0.5,0.5c-0.7,0-14.3,0-15.1-0.1c-0.6,0-1.2-0.2-1.6-0.6l-9.7-9.8
			c-0.2-0.3-0.4-0.7-0.3-1.1c0-0.5,0.2-20.4,0.2-20.8c0-0.7-0.1-1.4-0.3-2.1c-0.2-0.9-12.1-29.3-12.2-29.7s-0.1-0.7,0.5-0.8
			s11.3,0,12-0.1c0.8-0.1,0.8,0.1,1.2,0.5s8.1,7.4,8.7,8s0.6,0.5,0.8,0.1s3.5-8,3.7-8.4s0.2-0.4,0.5-0.4s3.1-0.1,6-0.1
			c3.1,0,5.3,0.1,5.8,0.1s0.5,0.1,0.9,0.5c0.5,0.5,10.5,10.7,10.9,11s0.5,0.5,0.5,1S855.5,36.7,855.4,37.1z M840.9,21l-8.5-0.1
			c-0.4,0-0.5,0-0.6,0.3c-0.2,0.5-7.8,16.9-8,17.3s-0.5,1-1-0.2c-0.4-1.1-7.2-16.4-7.3-16.9s-0.2-0.4-0.6-0.4s-8,0.2-8.3,0.3
			s-0.4,0.1-0.2,0.5s11.3,27.1,11.5,27.8c0.2,0.6,0.3,1.2,0.2,1.9c0,0.5-0.2,20.6-0.2,21.1s0.1,0.7,0.5,0.7s8.8,0.2,9.2,0.1
			s0.5,0.2,0.4-0.6s0.5-21.5,0.5-21.8c0.1-0.3,0.2-0.7,0.4-1c0.2-0.5,12.3-28.1,12.4-28.5S841.2,21,840.9,21z"/>
		<path class="st1" d="M881.8,83.1c0,1.4-0.4,1.3-1,1.3h-11c-0.6,0.1-1.1-0.1-1.5-0.5c-0.5-0.5-8.9-7.8-9.4-8
			c-0.3-0.3-0.6-0.7-0.6-1.1c0-0.6-0.2-15.6-0.2-26.5s0.1-27.5,0.1-28.2c0-0.4-0.1-0.6,0.5-0.7s11.4,0.1,12.1,0.1s0.8,0.1,1.3,0.7
			s9,8,9.5,8.4c0.3,0.2,0.5,0.6,0.5,1V55C882,62.6,881.8,81.8,881.8,83.1z M869.4,72.5c0-0.5-0.1-18.1-0.2-25.7s-0.5-24.4-0.5-25
			s-0.1-1-0.4-1l-8-0.1c-0.5,0-0.5,0-0.5,0.5c0,0.7-0.1,15.8-0.1,24.5s0.1,25.5,0.1,26.2s0.1,0.8,0.5,0.8c1.5,0.4,3,0.6,4.6,0.5
			c2.3,0,3.8,0.1,4,0S869.4,73.1,869.4,72.5z"/>
	</g>
</g>
<g>
	<path class="st1" d="M995.5,62.5l-0.1,26.3l-73.2-0.3L906,72l0.1-18.3l12.8-8.5l-8.6-9.2c-2.5-3.5-4.8-7.6-4.8-13.7
		C905.7,6.9,926,1.4,944.2,1.5c14.9,0.1,23.1,3.5,29,7.9c12.8,9.3,21.1,18,21.1,27.7c0,5.2-3.6,11.4-9.3,14.6L995.5,62.5z
		 M907.2,71.1l70.4,0.3l0.1-26.1l-20.2-0.1l0,6.5l-19.3-0.1l0-0.2l4.4-1.8c19.9-8.3,34-16,34-27.8C976.7,7,960.5,2.8,944.2,2.7
		c-16.8-0.1-37.4,5-37.5,19.7c0,5.9,1.8,9.2,4.1,12.7l18.6-2.7c-1.6-3-2.2-4.5-2.2-6.6c0-4.3,3.5-6.2,7.9-6.2c5,0,7.5,2.1,7.5,5.7
		c0,3.6-1.8,6-6,9.2c-9.1,6.8-18.6,12.9-29.3,19.9L907.2,71.1z"/>
</g>
<path class="st2" d="M907.2,71.1l70.4,0.3l0.1-26.1l-20.2-0.1l0,6.5l-19.3-0.1l0-0.2l4.4-1.8c19.9-8.3,34-16,34-27.8
	C976.7,7,960.5,2.8,944.2,2.7c-16.8-0.1-37.4,5-37.5,19.7c0,5.9,1.8,9.2,4.1,12.7l18.6-2.7c-1.6-3-2.2-4.5-2.2-6.6
	c0-4.3,3.5-6.2,7.9-6.2c5,0,7.5,2.1,7.5,5.7c0,3.6-1.8,6-6,9.2c-9.1,6.8-18.6,12.9-29.3,19.9L907.2,71.1z"/>
</svg>
