<svg xmlns="http://www.w3.org/2000/svg" viewBox="0 0 882.04 90.05"><defs><style>.cls-1{fill:#fff;}.cls-2{fill:#231f20;}</style></defs><title>Asset 2</title><g id="Layer_2" data-name="Layer 2"><g id="Layer_1-2" data-name="Layer 1"><polygon class="cls-1" points="859.26 20.46 859.37 73.48 871.69 75.55 870.16 20.24 859.26 20.46"/><polygon class="cls-1" points="805.26 21 817.26 51.22 817.37 73.69 831.22 75.11 830.78 49.8 842.78 20.13 831.87 20.68 827.51 30.6 816.82 20.35 805.26 21"/><polygon class="cls-1" points="757.91 20.79 758.13 74.57 771.66 74.89 770.67 52.53 781.8 52.53 780.06 38.46 771.66 39.55 771.44 33.11 790.64 32.68 790.53 20.24 757.91 20.79"/><polygon class="cls-1" points="732.49 62.57 732.82 74.24 742.86 75.33 743.07 61.59 732.49 62.57"/><polygon class="cls-1" points="667.26 2.79 667.26 17.3 681.44 19.7 682.97 74.68 699.55 75.33 697.91 17.84 715.91 17.19 713.62 2.9 667.26 2.79"/><polygon class="cls-1" points="600.93 3.33 600.93 75.11 650.46 75.66 648.49 3.77 646.53 3 633.11 2.57 630.16 24.6 616.09 2.46 600.93 3.33"/><polygon class="cls-1" points="536.78 2.79 536.13 73.8 540.27 75.11 580.2 74.24 578.35 57 568.09 26.24 580.53 17.3 579.98 2.35 536.78 2.79"/><polygon class="cls-1" points="452.24 2.9 451.37 73.91 454.2 75.88 515.84 75.11 514.2 2.57 492.49 2.68 488.56 17.3 473.29 3.44 452.24 2.9"/><rect class="cls-1" x="385.47" y="3" width="16.15" height="71.35"/><rect class="cls-1" x="395.73" y="29.4" width="36.44" height="18.44"/><rect class="cls-1" x="413.29" y="3" width="14.73" height="73.42"/><polygon class="cls-1" points="337.91 0.49 345.55 1.37 351.33 3.11 361.04 10.31 364.09 31.59 364.2 56.24 354.06 73.26 340.75 75.66 326.02 69.88 320.46 62.24 318.71 56.46 318.6 20.02 320.46 12.71 324.17 7.04 329.73 2.46 337.91 0.49"/><polygon class="cls-1" points="251.95 74.57 268.75 74.89 272.35 60.82 286.31 60.49 288.38 74.46 307.47 76.2 288.06 2.35 269.29 2.68 267.76 3.33 251.95 74.57"/><rect class="cls-1" x="188.24" y="3.44" width="42.76" height="20.51"/><rect class="cls-1" x="187.15" y="57.33" width="43.75" height="16.91"/><rect class="cls-1" x="187.37" y="22.42" width="27.05" height="43.64"/><rect class="cls-1" x="210.82" y="30.5" width="8.29" height="17.13"/><rect class="cls-1" x="122.57" y="2.9" width="26.07" height="71.35"/><polygon class="cls-1" points="146.24 3.44 151.47 3.77 159.33 9.11 165.87 20.57 165.66 36.06 159 47.73 139.58 52.2 134.35 28.53 146.24 3.44"/><rect class="cls-1" x="38.24" y="3" width="23.24" height="71.13"/><rect class="cls-1" x="78.38" y="2.9" width="22.36" height="71.56"/><polygon class="cls-1" points="59.73 9.11 68.78 32.35 78.93 4.31 85.47 9.77 86.02 61.8 80.56 77.51 59.84 78.39 51.55 53.08 59.73 9.11"/><rect class="cls-1" x="1.37" y="2.35" width="15.82" height="73.42"/><path class="cls-2" d="M31.6,86.32c0,1.9-.5,1.7-1.3,1.7H15.6a2.28,2.28,0,0,1-2-.7c-.7-.7-11.9-10.4-12.5-10.7a2.24,2.24,0,0,1-.8-1.5c0-.8-.3-20.8-.3-35.4S.1,3.12.1,2.12c0-.5-.1-.8.6-.9s15.2.1,16.1.1,1.1.2,1.7.9c.5.5,12,10.6,12.7,11.2a1.89,1.89,0,0,1,.7,1.3v34.1C31.9,59,31.6,84.62,31.6,86.32ZM15,72.22c0-.7-.1-24.1-.2-34.2s-.6-32.5-.6-33.3-.1-1.3-.5-1.3L3,3.32c-.6,0-.7,0-.7.7,0,.9-.1,21.1-.1,32.6s.1,34,.1,34.9.1,1,.6,1.1a23,23,0,0,0,6.1.7c3.1,0,5.1.1,5.4,0S15.1,73,15,72.22Z"/><path class="cls-2" d="M116.2,85.62c-.1,1.6-.7,2-1.5,2s-11.5.2-12.4.1-.9-.2-1.6-.6c-.5-.3-8.1-6.1-8.8-6.6s-1-.7-1,0c-.2.7-.8,5.2-1.1,6.2-.1.9-.4,1-1.1,1s-6.9.1-7.5.1a2.79,2.79,0,0,1-1.7-.5c-.5-.4-9.1-6.8-9.6-7.2s-.7-.5-.7.1-.4,5.7-.5,6.6-.7,1-1.5,1-14.1.1-15.2.1a3.11,3.11,0,0,1-2.2-.8c-.7-.5-11.6-11.5-12-12a2.63,2.63,0,0,1-.8-2c-.1-.8.3-31.5.3-36.9s.5-33.5.6-34.3c0-.6-.1-.6,1.2-.7s19.1,0,20.2,0a3.07,3.07,0,0,1,2.4.8c.8.7,10.6,9.8,11.8,10.9s.9.7,1.1,0,2.7-9.6,3-10.7.3-.8,1.3-.9l21.9-.1a2.41,2.41,0,0,1,2.4,1l12.7,12.7c.4.5.5.5.6,1.6S116.2,84.22,116.2,85.62ZM99,37c0-7.5-.1-32.1-.1-33s.1-.7-.9-.7-16.7.1-17.3.1c-.8,0-.9.2-1,.6S69.6,38,69.4,38.92s-.4,1.4-1-.6-10.3-33.5-10.5-34-.3-.4-.9-.4-15.6-.3-16.2-.2-.9,0-.9.5c0,.7-.7,32.4-.9,38.7s-.2,10.8-.2,14.1.1,14.8.1,15.4-.1,1.4.6,1.4,10.7-.6,11.2-.6.8.1.8-.7.1-20,.1-24.9.2-17.9.1-19.2.4-1,.8.8,10.2,36.7,11,38.7c.6,2,1,4.2,1.1,4.7s-.2.6.5.6,6.4-.2,6.8-.1.5.2.7-.7,3.9-13.8,6.5-22.2,5.8-19,6.1-20.5.6-1.9.6.1-.1,41.9,0,42.8.1.8.6.8H87s10.8-.1,11.3-.2.6.1.6-.5S99,44.72,99,37Z"/><path class="cls-2" d="M170,58.72c-5.2,3.2-13,3.9-13.8,3.9s-.7.3-.8,1.2c0,.7-.2,21.5-.2,22.9-.2,1.5-.5,1.4-1.3,1.4s-16.4-.2-17.4-.3a2.78,2.78,0,0,1-2.3-1c-.6-.6-3.1-2.7-5.6-5.2s-6.1-6.5-6.5-7a2.43,2.43,0,0,1-.5-1.8c0-1.1.1-16.9,0-28.6s-.1-40.3,0-41.2c0-1.1.7-1,1.7-1.3.8-.2,15.9-.2,21.4,0,5.3.2,7.5,1.4,11.8,4s16.2,14,18.1,16.6c1.9,2.4,7,6.1,7.2,18.1S175.4,55.72,170,58.72Zm-5.6-34.5c0-6.2-3-10.5-5.7-13.6s-6.8-6.5-12.8-6.8-20.7-.3-21.6-.2-.8-.1-.9.4-.3,23.6-.2,34,.2,33.3.2,34.1-.3,1.1.7,1.1,10.1.3,10.9.2c1,0,1.1-.1,1.1-1v-13c0-5.9.4-13.7.3-14.3s.4-.6.9-.6c.7,0,7.5,0,11.6-.5a14.48,14.48,0,0,0,9.6-5.2A21.31,21.31,0,0,0,164.4,24.22Zm-26.9-7.6a34,34,0,0,1,7.6.4c1.8.4,6.1,2.1,6,7.1s-2.9,6-5.5,7c-2.6.8-7.1.5-8.2.5s-1.3-.4-1.3-1.3,0-11.8,0-12.9C136.1,16.72,136.4,16.82,137.5,16.62Z"/><path class="cls-2" d="M246.2,30.72c-.1.7-.1.8-.7.9-.8,0-21.7-.2-22.2-.3-.7,0-.7,0-.4.4s8.5,11.6,8.7,11.9a1.1,1.1,0,0,1,.3.9c0,.5.3,11.3.3,11.8s0,.6-.2.8-.4.2-.1.6,13.2,13,13.6,13.5a1.67,1.67,0,0,1,.4,1.1c.1.4.1,13.9.1,14.8s-.2,1-.9,1l-43,.4a1.28,1.28,0,0,1-1-.4c-.4-.3-13.6-12.6-13.9-12.9s-.8-.5-.8-1.4.8-69.8.7-70.9c-.1-.7.2-.9,1.1-1s42.6,0,43.3,0a2,2,0,0,1,1.3.4c.5.3,12.3,10.7,12.9,11.3s.4.7.4,1.4S246.2,29.92,246.2,30.72ZM228.9,4.42c0-.3.1-.6-.5-.6s-38.3-.3-38.8-.3-.8.1-.8.8-1.1,68.2-.9,68.7c0,.5,0,.5.5.5s39.6-.4,40.4-.4c.6,0,.5-.3.4-.7s0-11.6,0-12.1-.1-.6-.6-.6-25.7.1-26.3.1-.6-.3-.6-.8,0-13.1,0-13.6.2-.7.7-.8c.7-.1,13.2-.1,13.8-.1s.5-.1.5-.5.2-11.7.2-12.1.1-.4-.2-.4l-14.5-.2c-.4,0-.5-.2-.5-.6s-.1-12.6-.1-13.3c0-.2.1-.3.6-.4s25-.2,25.8-.3.9-.4.9-.9S229,4.72,228.9,4.42Z"/><path class="cls-2" d="M317,88.32l-13.7.2a2.73,2.73,0,0,1-1.2-.6c-.3-.3-5.5-4.5-7.3-6.3-1.9-1.6-6.8-5.9-7-6.1s-.3-.5-.4-.2c-.1.5-.6,3.5-1.1,6s-1.3,5.6-1.4,6.3-.2.8-1,.9-17.2,0-18.3-.1a2.17,2.17,0,0,1-1.8-.8c-.7-.5-12.8-12.4-13.2-12.8a1.51,1.51,0,0,1-.2-1.6c.2-.8,16.7-70.4,16.8-70.9s.4-.6,1.2-.7,17.7-.1,19,0,1.6.5,2.8,1.4,13.2,12.4,13.9,13.1a3.11,3.11,0,0,1,1.1,1.9c.3,1,2.9,11.9,5,21.8,2.3,9.8,7.1,31,7.2,31.8a12,12,0,0,1,.3,2c0,1,.1,13.2.2,13.9S317.5,88.32,317,88.32Zm-14.4-15.4c0-.2-3-15.1-6.6-30.6-4.2-18.1-8.9-37.7-8.9-37.9-.1-.4-.1-1-.5-1l-17,.1c-.2,0-.3,0-.4.6s-16.4,68.3-16.6,69c-.1.3,0,.4.2.4s3.9,0,6.1-.1,6.2.1,6.5,0,.3-.1.3-.3,1.5-5.9,2-7.9c.6-2.2,1.5-6,1.7-6.3s.3-.5.7-.6,3.6,0,7.3-.1,8.1.1,8.7.1.8.3.9.8,2.8,13.4,2.9,13.8,0,.5.4.5l11.9.1C302.8,73.52,302.7,73.32,302.6,72.92Zm-18-26c.2.7-.6.8-1.2.9s-9.7,0-10.3-.1c-.2,0-.9,0-.8-.8s1.8-8.2,2.8-12.3,2.5-11.4,2.8-12.7.9-1,1-.3,1.9,7.8,3.3,14.2C283.5,41.92,284.5,46.32,284.6,46.92Z"/><path class="cls-2" d="M379.2,36.72c0,2.5-.2,9.7-.2,10.3,0,.8-.3.4-1,.4s-6.9,0-7.7.1c-.3,0-.3,0,0,.6.5.7,2.1,2.5,3.5,4.6a35,35,0,0,1,3.6,4.4,4,4,0,0,1,1,2.1,43.57,43.57,0,0,1,.4,7c0,3.3-.2,10-1.7,14.9-1.2,4.6-4.5,6.9-8.3,8.1s-10.9.8-13.9.6-5.8-.6-11.6-3.3-13-9.3-18.5-15.7c-5-6.5-6.2-11.6-6.7-15.2s-.4-27.5-.1-35.2,3.1-11,6-14.4,8.2-5.3,9.9-5.8c2.1-.4,7.1-.2,11.8.2,4.5.6,8.7,3,14.5,7,5.9,4.2,12.4,11.8,14.1,13.8a26.62,26.62,0,0,1,3.8,7.2A30.86,30.86,0,0,1,379.2,36.72ZM362.7,45c0-.4.1-.5-.5-.5l-12.9-.1c-.5-.1-.6,0-.6.6s-.1,4.2-.3,7.3a8.78,8.78,0,0,1-3.3,6.5c-1.9,1.5-6.1,2-8.6.3-2.7-1.9-3.5-5.2-3.5-10.2.1-5.2.4-21.1.6-25.3a9,9,0,0,1,3.8-7.5,8.91,8.91,0,0,1,7.5,0,6,6,0,0,1,3.1,4.4c.8,2.7.4,8.7.5,9.4.1.2.1.6.5.6l13.2-.2c.4-.1.3-.1.3-.7s0-5.6-.2-8.8c-.2-2.9-.7-5-3.4-9.9s-8.9-7.3-12.6-8.4-6.9-.8-10.5-.6-7.2,2.2-10.1,5a21.66,21.66,0,0,0-5.8,9.5c-.8,3.3-.8,5.6-.9,13.7,0,8.3-.1,20.1.5,25.3.3,5.4,2.5,9.1,6.6,12.7,4.2,3.8,10.9,5.7,18.1,5.2s11.5-4.7,15.3-10.8C363.5,56.22,362.6,45.62,362.7,45Z"/><path class="cls-2" d="M445.2,88.42c-.1.5-.2.8-.7.9-.3.1-5.5.3-8.4.3s-8.3-.1-8.6-.1a2.24,2.24,0,0,1-1-.3c-.4-.4-8.1-7-8.5-7.3a.37.37,0,0,0-.6.3c-.1.5-.1,6.2-.1,6.5s-.1.8-.5.9-15.3.2-16.3.2-1.4-.6-2.4-1.4c-.9-.6-12.7-13-13.2-13.5s-.4-.5-.4-1.7-.21-20.9-.21-29.2c-.1-8.1.5-40,.5-41,.11-.7.11-.9,1.21-1.1s13.7,0,14.8,0a4.71,4.71,0,0,1,2.9.9c.9.6,7.5,6.6,8.4,7.3.7.6.5.4.5-.4s.1-5.7,0-6.7c0-1.2.2-1.1,1.1-1.1s14.4,0,15.5-.1a3.31,3.31,0,0,1,2.7,1.1c1.2.9,11.6,10.7,12.4,11.6s.7,1.5.7,2.5.3,25.6.3,34.2S445.3,87.92,445.2,88.42ZM427.1,72c.1-.9-.2-67-.1-67.7s-.3-.7-1.1-.7l-10.5.1c-.6,0-1.1-.1-1.1,1,.1.9-.1,24.8-.1,25.8s-.1,1.2-1.1,1.3c-.8.1-12.3.2-13.2.1-.7-.1-1.1-.2-1.2-1.5s-.3-25.4-.2-26.1-.1-.8-.8-.8H387.1c-.5,0-.81,0-.81.4v33.2c-.09,17.3-.09,34.8-.09,35.2.09.8-.1,1.2.7,1.2h11.5c.6,0,.6-.2.6-.6,0-.6-.1-25.5,0-26.4s.2-1,.8-1c.8-.1,13.1-.3,13.8-.3s.7.1.7.9c0,.6.3,25,.3,25.9.1,1.1.3,1.4,1,1.4l10.6-.1C427.1,73.22,427.1,72.92,427.1,72Z"/><path class="cls-2" d="M529.6,85.62c-.1,1.6-.7,2-1.5,2s-11.5.2-12.4.1-.9-.2-1.6-.6c-.5-.3-8.1-6.1-8.8-6.6s-1-.7-1,0c-.2.7-.8,5.2-1.1,6.2-.1.9-.4,1-1.1,1s-6.9.1-7.5.1a2.79,2.79,0,0,1-1.7-.5c-.5-.4-9.1-6.8-9.6-7.2s-.7-.5-.7.1-.4,5.7-.5,6.6-.7,1-1.5,1-14.1.1-15.2.1a3.11,3.11,0,0,1-2.2-.8c-.7-.5-11.61-11.5-12-12a2.63,2.63,0,0,1-.8-2c-.11-.8.3-31.5.3-36.9s.5-33.5.59-34.3c0-.6-.09-.6,1.21-.7s19.1,0,20.2,0a3.07,3.07,0,0,1,2.4.8c.8.7,10.6,9.8,11.8,10.9s.9.7,1.1,0,2.7-9.6,3-10.7.3-.8,1.3-.9l21.9-.1a2.41,2.41,0,0,1,2.4,1l12.7,12.7c.4.5.5.5.6,1.6S529.6,84.22,529.6,85.62ZM512.4,37c0-7.5-.1-32.1-.1-33s.1-.7-.9-.7-16.7.1-17.3.1c-.8,0-.9.2-1,.6S483,38,482.8,38.92s-.4,1.4-1-.6-10.3-33.5-10.5-34-.3-.4-.9-.4-15.61-.3-16.2-.2-.91,0-.91.5c0,.7-.7,32.4-.89,38.7s-.2,10.8-.2,14.1.09,14.8.09,15.4-.09,1.4.61,1.4,10.7-.6,11.2-.6.8.1.8-.7.1-20,.1-24.9.2-17.9.1-19.2.4-1,.8.8,10.2,36.7,11,38.7c.6,2,1,4.2,1.1,4.7s-.2.6.5.6,6.4-.2,6.8-.1.5.2.7-.7,3.9-13.8,6.5-22.2,5.8-19,6.1-20.5.6-1.9.6.1-.1,41.9,0,42.8.1.8.6.8h.6s10.8-.1,11.3-.2.6.1.6-.5S512.4,44.72,512.4,37Z"/><path class="cls-2" d="M595.2,30.72c-.1.7-.1.8-.7.9-.8,0-21.7-.2-22.2-.3-.7,0-.7,0-.4.4s8.5,11.6,8.7,11.9a1.1,1.1,0,0,1,.3.9c0,.5.3,11.3.3,11.8s0,.6-.2.8-.4.2-.1.6,13.2,13,13.6,13.5a1.67,1.67,0,0,1,.4,1.1c.1.4.1,13.9.1,14.8s-.2,1-.9,1l-43,.4a1.3,1.3,0,0,1-1-.4c-.4-.3-13.6-12.6-13.9-12.9s-.8-.5-.8-1.4.8-69.8.7-70.9c-.1-.7.2-.9,1.1-1s42.61,0,43.31,0a2,2,0,0,1,1.3.4c.5.3,12.3,10.7,12.9,11.3s.4.7.4,1.4S595.2,29.92,595.2,30.72ZM577.9,4.42c0-.3.1-.6-.5-.6s-38.31-.3-38.81-.3-.8.1-.8.8-1.1,68.2-.9,68.7c0,.5,0,.5.5.5s39.61-.4,40.41-.4c.6,0,.5-.3.4-.7s0-11.6,0-12.1-.1-.6-.6-.6-25.71.1-26.31.1-.6-.3-.6-.8,0-13.1,0-13.6.2-.7.7-.8c.7-.1,13.21-.1,13.81-.1s.5-.1.5-.5.2-11.7.2-12.1.1-.4-.2-.4l-14.51-.2c-.4,0-.5-.2-.5-.6s-.1-12.6-.1-13.3c0-.2.1-.3.6-.4s25-.2,25.81-.3.9-.4.9-.9S578,4.72,577.9,4.42Z"/><path class="cls-2" d="M662.8,86.32c-.1,1.7-.5,2.2-1,2.4s-14,0-15.2,0a4.9,4.9,0,0,1-2.5-.8c-.8-.6-9.4-6.1-10.4-6.9s-.9-.5-.9.3v6.3c0,1.2-.6,1.1-1.5,1.2s-16.21,0-16.81-.1a2.15,2.15,0,0,1-1.6-.5c-.6-.6-11.4-10.5-12.2-11.2s-.9-1-.9-2.1c0-.9-.1-28.2-.1-34.8S600,3.62,600,3c.1-.8.2-.9,1.1-1s13.4-.2,14.6-.2a3.85,3.85,0,0,1,2.6.8c.9.6,10.41,6,11.81,7.1,1.2,1.1.9.5.9-.2s.1-5.9.1-6.7c0-1,.1-1,.9-1l16.3.1a3.86,3.86,0,0,1,2.6.9,60.8,60.8,0,0,1,5.6,4.3c2.8,2.5,3.9,4.1,4.8,4.9s.9,1.4,1,3.2S662.8,84.72,662.8,86.32Zm-16.6-13.8c0-.7-.3-68.1-.3-68.6a.7.7,0,0,0-.8-.6c-.6,0-11.1.4-11.5.4s-.5,0-.5.9v36.8c0,1.3.2,2.5-1,.1s-6.6-16-8.81-20.9-7.3-16.3-7.5-16.7-.2-.6-.7-.6-12.2.3-12.9.4-.5.4-.5.7c.1.5,0,29.5-.1,38.2s.1,29.5.1,30-.1.8.4.8,11.3-.2,11.9-.4c.7,0,.9.2.8-1.1s-.3-38.5-.3-40,.5-.5.7.2c.4.6,17.41,40,17.71,40.7s.4.9,1,.9,11.1-.4,11.7-.4S646.2,73.22,646.2,72.52Z"/><path class="cls-2" d="M728.1,33.82c0,.5-.2.9-.6.9l-10.8.1c-.6,0-.8.2-.8.8s-.4,50.7-.4,51.7c.1.8-.3.9-1.1,1s-17.9,0-18.5-.1-1.7-1-2.2-1.5-11.41-10.9-11.7-11.4a1.81,1.81,0,0,1-.41-1.4c.11-.6-.09-39.2-.09-39.7s-.1-.7-.6-1.1c-.31-.3-13.91-12.9-14.31-13.4a1.38,1.38,0,0,1-.5-1.2c-.1-.3,0-14.6,0-15.2,0-1.5.5-1.7,1.3-1.8l47,.5a2.52,2.52,0,0,1,1.7.6c.5.4,11.4,10.8,11.7,11.2a1.81,1.81,0,0,1,.5,1.4C728.1,15.92,728.1,33.32,728.1,33.82Zm-16.3-17.9c0-.3-.2-3.9-.2-6.3a44.71,44.71,0,0,0-.1-5.8c0-.4-.2-.4-.5-.4s-15,0-22.3,0-19.71.1-20.21,0-.6.2-.7.5c-.1.5.2,11.5.2,11.9s.1.3.4.3,14.31.2,14.71.3a.73.73,0,0,1,.6.7c0,.4.5,55.5.5,55.8s.09.4.2.4,3.7.1,6,.1,5.6-.1,5.8-.1.3,0,.2-.5c0-.3-.2-55-.1-55.5s.4-.8,1-.8,4.9-.1,7.6-.1,6.2-.1,6.5-.1S711.8,16.32,711.8,15.92Z"/><path class="cls-2" d="M754.54,72.22c0,.6-.15,11.55-.15,12s-.3,1-.6,1-2.1.15-3.6.22-5.77-.15-6.07-.15a1.42,1.42,0,0,1-1-.22c-.3-.23-1.5-1.28-4.43-4-2.92-2.93-6.37-6.08-6.67-6.6a2.49,2.49,0,0,1-.68-1.73c0-.75.3-10.05.38-10.65,0-.37-.23-.67.6-.82.67-.08,10.8-.08,11.7-.08a2,2,0,0,1,1.57.68c.38.45,8,8.62,8.48,9.22S754.54,71.62,754.54,72.22Zm-12.6-8.7c0-.6-.07-.75-.45-.75l-7.65.08c-.52,0-.6-.15-.6.15v9.3c0,.45-.07.82.45.82s7,.38,7.58.38.52-.15.52-.75S741.94,64,741.94,63.52Z"/><path class="cls-2" d="M802.09,29.7c0,.6-.45,10.5-.52,11.25s-.75,1-1.28,1-5.62.23-7.5.23-8.85,0-9.15-.08-.6.08-.3.3,3.08,3.23,4.95,5,4.73,4.35,4.88,4.5a.57.57,0,0,1,.22.52c0,.45.15,2.7.23,5.1a50.77,50.77,0,0,1-.08,5.25c-.07.75-.3.75-1,.75s-9.07.3-9.52.3-.45.23-.45.6.22,6,.3,9.45.22,10,.22,10.5c.15.6-.15.6-.37.6s-4,.15-6.53.23-5.92,0-6.45-.08a1.3,1.3,0,0,1-1-.45c-.23-.22-10.35-8.77-10.8-9.15a1.55,1.55,0,0,1-.53-1.42c0-.23-.07-12.75-.15-25.65-.15-13.88,0-28.13,0-28.43s.08-.52.83-.52,31.8.22,32.77.3a3,3,0,0,1,2.18.67c.37.38,3.22,2.93,4.8,4.43s3.52,3.52,3.82,3.9A1.15,1.15,0,0,1,802.09,29.7Zm-13.2.52c0-.45.15-8.55.08-8.92s0-.3-.45-.23-10.5-.15-16-.07-12.53.07-12.9.07-.83-.15-.83.6c0,.38-.15,13,0,25.58s.08,25,.08,25.2c0,.52,0,.75.45.82s8.32.08,9,.08.67-.3.6-1-.53-19.5-.45-20.17.3-.53.67-.45,9.53,0,10-.08c.3,0,.45.08.45-.3s-.15-8.25-.15-8.7-.08-.6-.6-.6l-10.13-.15c-.45,0-.6.08-.6-.6s.08-9.75,0-10.35c-.07-.45.23-.45.53-.45s6.75.15,10.72.08h9.3C789,30.52,788.89,30.52,788.89,30.22Z"/><path class="cls-2" d="M855.42,37.12a3.63,3.63,0,0,1-.45,1.65c-.3.6-9.3,21.68-9.83,22.95A24.3,24.3,0,0,0,844,65.25a33.28,33.28,0,0,0-.38,4.35c0,.82-.15,14.47-.15,14.85s-.07.52-.52.52c-.68,0-14.25,0-15.08-.07a2,2,0,0,1-1.57-.6l-9.68-9.83a1.5,1.5,0,0,1-.3-1.12c0-.53.23-20.4.23-20.85a8.47,8.47,0,0,0-.3-2.1C816,49.5,804.19,21.07,804,20.7s-.07-.68.45-.75,11.33,0,12-.08c.83-.07.75.08,1.2.53s8.1,7.42,8.7,8,.6.53.75.08,3.53-8,3.68-8.4.15-.38.52-.38,3.08-.15,6-.15c3.08,0,5.33.08,5.78.08s.52.15.9.45c.45.52,10.5,10.72,10.87,11s.45.53.45,1S855.49,36.67,855.42,37.12ZM840.94,21l-8.55-.15c-.37,0-.45,0-.6.3-.15.45-7.8,16.87-8,17.32s-.45,1-1-.15c-.37-1.12-7.2-16.42-7.35-16.87s-.15-.38-.6-.38-8,.23-8.32.3-.38.08-.23.53,11.33,27.15,11.55,27.82a5.5,5.5,0,0,1,.23,1.88c0,.52-.23,20.62-.23,21.07s.08.68.45.68,8.85.15,9.15.07.45.15.38-.6.52-21.45.52-21.82a4.56,4.56,0,0,1,.38-1c.15-.45,12.3-28.13,12.37-28.5S841.24,21,840.94,21Z"/><path class="cls-2" d="M881.82,83.1c0,1.42-.38,1.27-1,1.27h-11a1.72,1.72,0,0,1-1.5-.52c-.53-.53-8.93-7.8-9.38-8a1.71,1.71,0,0,1-.6-1.12c0-.6-.22-15.6-.22-26.55s.07-27.45.07-28.2c0-.38-.07-.6.45-.68s11.4.08,12.08.08.82.15,1.27.67,9,8,9.53,8.4a1.43,1.43,0,0,1,.52,1V55C882,62.62,881.82,81.82,881.82,83.1ZM869.37,72.52c0-.52-.08-18.07-.15-25.65s-.45-24.37-.45-25-.08-1-.38-1l-8-.07c-.45,0-.53,0-.53.52,0,.68-.07,15.83-.07,24.45s.07,25.5.07,26.18.08.75.45.82a17.22,17.22,0,0,0,4.58.53c2.32,0,3.82.07,4,0S869.44,73.12,869.37,72.52Z"/></g></g></svg>